<svg width="240" height="80" viewBox="0 0 500 150" fill="none" xmlns="http://www.w3.org/2000/svg" class=""><g transform="translate(75, 75) scale(0.7)"><g transform="translate(0, 0)"><path d="M 0,-35 L 30,-17.5 L 30,17.5 L 0,35 L -30,17.5 L -30,-17.5 Z" fill="url(#coreGradient)" stroke="#3B82F6" stroke-width="2.5"/><path d="M 0,-25 L 21.5,-12.5 L 21.5,12.5 L 0,25 L -21.5,12.5 L -21.5,-12.5 Z" fill="url(#innerCoreGradient)" opacity="0.7"/><circle cx="0" cy="0" r="10" fill="#3B82F6" opacity="0.3"/><circle cx="0" cy="0" r="6" fill="url(#aiGradient)"/><line x1="-12" y1="-6" x2="12" y2="-6" stroke="#60A5FA" stroke-width="1.5" opacity="0.6"/><line x1="-12" y1="0" x2="12" y2="0" stroke="#60A5FA" stroke-width="1.5" opacity="0.6"/><line x1="-12" y1="6" x2="12" y2="6" stroke="#60A5FA" stroke-width="1.5" opacity="0.6"/></g><g transform="translate(0, -45)"><rect x="-8" y="-8" width="16" height="16" rx="2" fill="url(#blockGradient)" stroke="#3B82F6" stroke-width="1.5"/></g><g transform="translate(45, 0)"><rect x="-8" y="-8" width="16" height="16" rx="2" fill="url(#blockGradient)" stroke="#3B82F6" stroke-width="1.5"/></g><g transform="translate(0, 45)"><rect x="-8" y="-8" width="16" height="16" rx="2" fill="url(#blockGradient)" stroke="#3B82F6" stroke-width="1.5"/></g><g transform="translate(-45, 0)"><rect x="-8" y="-8" width="16" height="16" rx="2" fill="url(#blockGradient)" stroke="#3B82F6" stroke-width="1.5"/></g><line x1="0" y1="-37" x2="0" y2="-25" stroke="url(#lineGradient)" stroke-width="1.5"/><line x1="0" y1="25" x2="0" y2="37" stroke="url(#lineGradient)" stroke-width="1.5"/><line x1="-37" y1="0" x2="-25" y2="0" stroke="url(#lineGradient)" stroke-width="1.5"/><line x1="25" y1="0" x2="37" y2="0" stroke="url(#lineGradient)" stroke-width="1.5"/></g><text x="170" y="90" text-anchor="start" fill="#3B82F6" font-size="42" font-family="system-ui, -apple-system, sans-serif" letter-spacing="1">NL2Autosar</text><defs><linearGradient id="coreGradient" x1="0%" y1="0%" x2="100%" y2="100%"><stop offset="0%" stop-color="#1E40AF"/><stop offset="50%" stop-color="#2563EB"/><stop offset="100%" stop-color="#3B82F6"/></linearGradient><linearGradient id="innerCoreGradient" x1="0%" y1="0%" x2="100%" y2="100%"><stop offset="0%" stop-color="#1E3A8A"/><stop offset="100%" stop-color="#1E40AF"/></linearGradient><radialGradient id="aiGradient" cx="50%" cy="50%"><stop offset="0%" stop-color="#93C5FD"/><stop offset="100%" stop-color="#3B82F6"/></radialGradient><linearGradient id="blockGradient" x1="0%" y1="0%" x2="100%" y2="100%"><stop offset="0%" stop-color="#2563EB"/><stop offset="100%" stop-color="#3B82F6"/></linearGradient><linearGradient id="lineGradient" x1="0%" y1="0%" x2="100%" y2="100%"><stop offset="0%" stop-color="#60A5FA"/><stop offset="100%" stop-color="#3B82F6"/></linearGradient></defs></svg>